<svg width="180" height="86" viewBox="0 0 180 86" fill="none" xmlns="http://www.w3.org/2000/svg">
<path d="M147.46 0.0804672H176.097C177.009 0.0804672 177.786 0.375416 178.43 0.965312C179.073 1.55521 179.395 2.30598 179.395 3.21764C179.395 4.12929 179.073 4.88006 178.43 5.46996C177.786 6.00623 177.009 6.27436 176.097 6.27436H150.195L150.919 4.90688V25.2582L150.115 24.3734H172.477C173.389 24.3734 174.166 24.6684 174.81 25.2582C175.453 25.8481 175.775 26.5989 175.775 27.5106C175.775 28.4222 175.453 29.173 174.81 29.7629C174.166 30.2992 173.389 30.5673 172.477 30.5673H150.356L150.919 29.8433V50.6773L150.437 50.1143H176.097C177.009 50.1143 177.786 50.436 178.43 51.0795C179.073 51.7231 179.395 52.447 179.395 53.2514C179.395 54.1631 179.073 54.9139 178.43 55.5038C177.786 56.0936 177.009 56.3886 176.097 56.3886H147.46C146.549 56.3886 145.771 56.0668 145.128 55.4233C144.538 54.7798 144.243 54.0022 144.243 53.0905V3.29808C144.243 2.38642 144.538 1.63564 145.128 1.04575C145.771 0.402229 146.549 0.0804672 147.46 0.0804672Z" fill="black"/>
<path d="M123.252 0C124.164 0 124.941 0.294944 125.585 0.884838C126.228 1.42111 126.55 2.14507 126.55 3.05673C126.55 3.48574 126.443 3.96838 126.228 4.50465L105.234 54.2971C104.912 54.9943 104.456 55.5305 103.866 55.9059C103.33 56.2277 102.74 56.3886 102.096 56.3886C101.506 56.3349 100.943 56.1472 100.407 55.8255C99.8709 55.4501 99.4687 54.9406 99.2005 54.2971L84.3308 30.6394C84.2236 30.4249 84.1431 30.2104 84.0895 29.9959C84.0359 29.7278 84.009 29.4597 84.009 29.1915C84.009 28.1726 84.3576 27.395 85.0548 26.8588C85.8055 26.2689 86.5295 25.9739 87.2267 25.9739C88.6746 25.9739 89.7203 26.7247 90.3638 28.2262L103.544 48.0228H101.694L120.276 2.011C120.919 0.670334 121.911 0 123.252 0Z" fill="#95CD08"/>
<path d="M60.204 53.0905C60.204 54.0021 59.8554 54.7797 59.1582 55.4233C58.5147 56.0668 57.7371 56.3885 56.8255 56.3885C55.8066 56.3885 55.0022 56.0668 54.4123 55.4233C53.8224 54.7797 53.5274 54.0021 53.5274 53.0905V28.9677C53.5274 28.0024 53.8492 27.2249 54.4927 26.635C55.1362 25.9914 55.9406 25.6697 56.9059 25.6697C57.8176 25.6697 58.5952 25.9914 59.2387 26.635C59.8822 27.2249 60.204 28.0024 60.204 28.9677V53.0905Z" fill="black"/>
<path d="M3.29805 56.3886C2.33277 56.3886 1.52836 56.0668 0.884842 55.4233C0.294947 54.7798 0 54.0022 0 53.0905V3.29808C0 2.38642 0.294947 1.63564 0.884842 1.04575C1.52836 0.402229 2.30595 0.0804672 3.21761 0.0804672H31.4521C32.3638 0.0804672 33.1414 0.375416 33.7849 0.965312C34.4284 1.55521 34.7502 2.30598 34.7502 3.21764C34.7502 4.07566 34.4284 4.79962 33.7849 5.38952C33.1414 5.97941 32.3638 6.27436 31.4521 6.27436H6.11345L6.59609 5.63084V25.3387L6.19389 24.4538H27.8323C28.744 24.4538 29.5215 24.7756 30.1651 25.4191C30.8086 26.009 31.1303 26.7598 31.1303 27.6714C31.1303 28.4759 30.8086 29.1998 30.1651 29.8433C29.5215 30.4332 28.744 30.7282 27.8323 30.7282H6.03301L6.59609 30.0042V53.0905C6.59609 54.0022 6.27433 54.7798 5.63081 55.4233C4.98729 56.0668 4.2097 56.3886 3.29805 56.3886Z" fill="black"/>
<path d="M12.5398 81.246C12.6857 81.246 12.8102 81.2975 12.9132 81.4005C13.0162 81.4949 13.0677 81.6151 13.0677 81.761C13.0677 81.9069 13.0162 82.0271 12.9132 82.1215C12.8102 82.2159 12.6857 82.2631 12.5398 82.2631H8.08523C7.93932 82.2631 7.81486 82.2116 7.71187 82.1086C7.61745 82.0056 7.57025 81.8811 7.57025 81.7352V73.7659C7.57025 73.62 7.62174 73.4998 7.72474 73.4054C7.82774 73.3024 7.95648 73.2509 8.11098 73.2509C8.25689 73.2509 8.38134 73.3024 8.48434 73.4054C8.58734 73.4998 8.63883 73.62 8.63883 73.7659V81.4777L8.38134 81.246H12.5398ZM16.6467 81.7352C16.6467 81.8811 16.5952 82.0056 16.4922 82.1086C16.3978 82.2116 16.2776 82.2631 16.1317 82.2631C15.9772 82.2631 15.8528 82.2116 15.7584 82.1086C15.6639 82.0056 15.6167 81.8811 15.6167 81.7352V76.0189C15.6167 75.873 15.6639 75.7529 15.7584 75.6584C15.8614 75.5555 15.9858 75.504 16.1317 75.504C16.2776 75.504 16.3978 75.5555 16.4922 75.6584C16.5952 75.7529 16.6467 75.873 16.6467 76.0189V81.7352ZM16.1317 74.6414C15.9171 74.6414 15.7584 74.5984 15.6554 74.5126C15.5524 74.4268 15.5009 74.2937 15.5009 74.1135V73.9333C15.5009 73.753 15.5567 73.62 15.6682 73.5341C15.7798 73.4483 15.9386 73.4054 16.1446 73.4054C16.3506 73.4054 16.5051 73.4483 16.6081 73.5341C16.7111 73.62 16.7626 73.753 16.7626 73.9333V74.1135C16.7626 74.2937 16.7068 74.4268 16.5952 74.5126C16.4922 74.5984 16.3377 74.6414 16.1317 74.6414ZM19.4109 81.2074C19.3337 81.0958 19.2993 80.9799 19.3079 80.8598C19.3165 80.731 19.3895 80.6194 19.5268 80.525C19.6126 80.4649 19.7113 80.4392 19.8229 80.4478C19.9431 80.4564 20.0503 80.5122 20.1448 80.6151C20.3851 80.8984 20.6597 81.1258 20.9687 81.2975C21.2777 81.4606 21.6554 81.5421 22.1017 81.5421C22.3077 81.5335 22.5137 81.4992 22.7197 81.4391C22.9257 81.379 23.0973 81.276 23.2346 81.1301C23.3806 80.9756 23.4535 80.7739 23.4535 80.525C23.4535 80.2847 23.3806 80.0959 23.2346 79.9585C23.0887 79.8126 22.8999 79.6968 22.6682 79.6109C22.4364 79.5165 22.1832 79.435 21.9086 79.3663C21.6253 79.2891 21.3464 79.2032 21.0717 79.1088C20.7971 79.0058 20.5482 78.8814 20.325 78.7355C20.1104 78.581 19.9345 78.3921 19.7971 78.169C19.6684 77.9372 19.604 77.6583 19.604 77.3321C19.604 76.9459 19.707 76.6112 19.913 76.3279C20.1276 76.0447 20.4108 75.8258 20.7627 75.6713C21.1232 75.5168 21.5138 75.4396 21.9343 75.4396C22.1746 75.4396 22.4236 75.4696 22.681 75.5297C22.9471 75.5812 23.2046 75.6756 23.4535 75.8129C23.7024 75.9417 23.9213 76.1219 24.1101 76.3537C24.1874 76.4395 24.2303 76.5468 24.2389 76.6755C24.2474 76.8043 24.1917 76.9202 24.0715 77.0232C23.9771 77.0918 23.8698 77.1219 23.7496 77.1133C23.6381 77.1047 23.5436 77.0618 23.4664 76.9845C23.2861 76.77 23.0587 76.6069 22.784 76.4953C22.518 76.3751 22.2219 76.3151 21.8957 76.3151C21.6897 76.3151 21.488 76.3451 21.2906 76.4052C21.0932 76.4653 20.9258 76.5683 20.7885 76.7142C20.6597 76.8515 20.5954 77.0446 20.5954 77.2935C20.6039 77.5253 20.6812 77.7141 20.8271 77.86C20.973 78.0059 21.1704 78.1261 21.4193 78.2205C21.6682 78.3063 21.9429 78.3921 22.2433 78.478C22.518 78.5466 22.7797 78.6282 23.0287 78.7226C23.2861 78.8084 23.5179 78.9243 23.7239 79.0702C23.9299 79.2161 24.093 79.4049 24.2131 79.6367C24.3333 79.8598 24.3934 80.1431 24.3934 80.4864C24.3934 80.8812 24.2818 81.2245 24.0586 81.5164C23.8355 81.7996 23.5393 82.0185 23.1703 82.173C22.8098 82.3189 22.4193 82.3918 21.9987 82.3918C21.5266 82.3918 21.0589 82.3017 20.5954 82.1215C20.1405 81.9412 19.7456 81.6365 19.4109 81.2074ZM26.912 75.6456H29.9376C30.0749 75.6456 30.1865 75.6928 30.2723 75.7872C30.3667 75.8816 30.4139 75.9932 30.4139 76.1219C30.4139 76.2593 30.3667 76.3751 30.2723 76.4695C30.1865 76.5554 30.0749 76.5983 29.9376 76.5983H26.912C26.7833 76.5983 26.6717 76.5511 26.5773 76.4567C26.4829 76.3623 26.4357 76.2464 26.4357 76.1091C26.4357 75.9803 26.4829 75.873 26.5773 75.7872C26.6717 75.6928 26.7833 75.6456 26.912 75.6456ZM28.2639 73.8946C28.4098 73.8946 28.5299 73.9461 28.6244 74.0491C28.7188 74.1435 28.766 74.2637 28.766 74.4096V80.628C28.766 80.834 28.796 80.9885 28.8561 81.0915C28.9162 81.1945 28.9934 81.2675 29.0878 81.3104C29.1908 81.3447 29.2895 81.3619 29.384 81.3619C29.4698 81.3619 29.5427 81.349 29.6028 81.3232C29.6715 81.2889 29.7487 81.2718 29.8346 81.2718C29.9204 81.2718 29.9976 81.3147 30.0663 81.4005C30.1436 81.4777 30.1822 81.5807 30.1822 81.7095C30.1822 81.864 30.0921 81.997 29.9118 82.1086C29.7316 82.2116 29.5299 82.2631 29.3067 82.2631C29.1865 82.2631 29.0363 82.2545 28.8561 82.2373C28.6844 82.2202 28.5128 82.1644 28.3411 82.07C28.1695 81.9756 28.0235 81.8211 27.9034 81.6065C27.7918 81.3833 27.736 81.0743 27.736 80.6795V74.4096C27.736 74.2637 27.7875 74.1435 27.8905 74.0491C27.9935 73.9461 28.118 73.8946 28.2639 73.8946ZM36.1482 82.3918C35.4616 82.3918 34.8608 82.2459 34.3458 81.9541C33.8308 81.6623 33.4274 81.2632 33.1356 80.7568C32.8523 80.2418 32.7107 79.6496 32.7107 78.9801C32.7107 78.2334 32.8566 77.5982 33.1485 77.0746C33.4489 76.5425 33.8351 76.1391 34.3072 75.8644C34.7878 75.5812 35.2942 75.4396 35.8264 75.4396C36.2212 75.4396 36.6031 75.5125 36.9722 75.6584C37.3413 75.8044 37.6674 76.0189 37.9507 76.3022C38.2339 76.5768 38.4613 76.9116 38.633 77.3064C38.8047 77.6926 38.8948 78.1261 38.9034 78.6067C38.9034 78.744 38.8519 78.8599 38.7489 78.9543C38.6459 79.0487 38.5257 79.096 38.3884 79.096H33.3029L33.0712 78.2076H38.0279L37.8219 78.3879V78.1046C37.7876 77.7527 37.6674 77.4523 37.4614 77.2034C37.264 76.9459 37.0194 76.7485 36.7276 76.6112C36.4443 76.4738 36.1439 76.4052 35.8264 76.4052C35.5689 76.4052 35.3114 76.4524 35.0539 76.5468C34.805 76.6326 34.5775 76.7785 34.3715 76.9845C34.1741 77.1819 34.011 77.4394 33.8823 77.757C33.7621 78.0746 33.7021 78.4565 33.7021 78.9028C33.7021 79.4007 33.8008 79.8384 33.9982 80.216C34.2042 80.5937 34.4874 80.8941 34.8479 81.1173C35.2084 81.3318 35.6289 81.4391 36.1096 81.4391C36.41 81.4391 36.6718 81.4005 36.8949 81.3232C37.1181 81.246 37.3112 81.1516 37.4743 81.04C37.6374 80.9198 37.7747 80.7997 37.8863 80.6795C37.9979 80.6023 38.1052 80.5637 38.2081 80.5637C38.3369 80.5637 38.4399 80.6066 38.5171 80.6924C38.603 80.7782 38.6459 80.8812 38.6459 81.0014C38.6459 81.1473 38.5772 81.276 38.4399 81.3876C38.1996 81.6537 37.8734 81.8897 37.4614 82.0957C37.0494 82.2931 36.6117 82.3918 36.1482 82.3918ZM43.0778 82.2888C43.0778 82.5377 43.0049 82.7824 42.859 83.0227C42.7217 83.2716 42.5457 83.4733 42.3311 83.6278C42.1165 83.7909 41.8977 83.8724 41.6745 83.8724C41.5973 83.8724 41.52 83.8424 41.4428 83.7823C41.3655 83.7308 41.3269 83.6364 41.3269 83.499C41.3269 83.3531 41.3741 83.2673 41.4685 83.2416C41.5629 83.2158 41.6659 83.1772 41.7775 83.1257C41.9063 83.057 42.005 82.9712 42.0736 82.8682C42.1509 82.7738 42.1895 82.6622 42.1895 82.5335C42.1895 82.4305 42.1509 82.3446 42.0736 82.276C42.005 82.2159 41.9191 82.1858 41.8161 82.1858C41.7561 82.1858 41.6917 82.1944 41.623 82.2116C41.5629 82.2288 41.5114 82.2545 41.4685 82.2888C41.4084 82.2459 41.357 82.1944 41.314 82.1343C41.2711 82.0743 41.2497 81.997 41.2497 81.9026C41.2582 81.7138 41.3527 81.555 41.5329 81.4262C41.7131 81.2889 41.9191 81.2203 42.1509 81.2203C42.4255 81.2203 42.6487 81.3233 42.8204 81.5292C42.992 81.7352 43.0778 81.9884 43.0778 82.2888ZM53.6619 75.4396C54.0997 75.4396 54.4945 75.4868 54.8464 75.5812C55.1983 75.6756 55.4772 75.8044 55.6832 75.9674C55.8892 76.1305 55.9922 76.3151 55.9922 76.521C55.9922 76.6326 55.9536 76.7399 55.8764 76.8429C55.7991 76.9459 55.6961 76.9974 55.5674 76.9974C55.4472 76.9974 55.3485 76.9759 55.2713 76.933C55.2026 76.8901 55.1339 76.8343 55.0653 76.7657C55.0052 76.697 54.9193 76.6369 54.8078 76.5854C54.7048 76.5253 54.5546 76.4781 54.3572 76.4438C54.1597 76.4095 53.9623 76.3923 53.7649 76.3923C53.2929 76.3923 52.8766 76.5039 52.5161 76.727C52.1642 76.9502 51.8852 77.2506 51.6793 77.6283C51.4733 78.0059 51.3703 78.4351 51.3703 78.9157C51.3703 79.3964 51.469 79.8255 51.6664 80.2032C51.8638 80.5808 52.1384 80.8812 52.4903 81.1044C52.8423 81.3275 53.2499 81.4391 53.7134 81.4391C54.0138 81.4391 54.2542 81.4134 54.4344 81.3619C54.6146 81.3104 54.7649 81.2503 54.885 81.1816C55.0395 81.0958 55.1554 81.01 55.2326 80.9241C55.3185 80.8383 55.43 80.7954 55.5674 80.7954C55.7133 80.7954 55.8249 80.8426 55.9021 80.937C55.9879 81.0314 56.0308 81.1473 56.0308 81.2846C56.0308 81.4391 55.9236 81.6022 55.709 81.7739C55.4944 81.9455 55.2026 82.0914 54.8335 82.2116C54.473 82.3318 54.061 82.3918 53.5976 82.3918C52.9452 82.3918 52.3745 82.2416 51.8852 81.9412C51.396 81.6322 51.0141 81.216 50.7394 80.6924C50.4733 80.1602 50.3403 79.568 50.3403 78.9157C50.3403 78.2634 50.4776 77.6755 50.7523 77.1519C51.0355 76.6283 51.4261 76.2121 51.9239 75.9031C52.4217 75.5941 53.001 75.4396 53.6619 75.4396ZM64.9858 78.9157C64.9858 79.5852 64.8356 80.1817 64.5352 80.7053C64.2434 81.2288 63.8443 81.6408 63.3379 81.9412C62.84 82.2416 62.2779 82.3918 61.6513 82.3918C61.0247 82.3918 60.4583 82.2416 59.9519 81.9412C59.4455 81.6408 59.0421 81.2288 58.7416 80.7053C58.4498 80.1817 58.3039 79.5852 58.3039 78.9157C58.3039 78.2462 58.4498 77.6497 58.7416 77.1261C59.0421 76.6026 59.4455 76.1906 59.9519 75.8902C60.4583 75.5898 61.0247 75.4396 61.6513 75.4396C62.2779 75.4396 62.84 75.5898 63.3379 75.8902C63.8443 76.1906 64.2434 76.6026 64.5352 77.1261C64.8356 77.6497 64.9858 78.2462 64.9858 78.9157ZM63.9558 78.9157C63.9558 78.4179 63.8528 77.9802 63.6468 77.6025C63.4494 77.2249 63.1748 76.9287 62.8229 76.7142C62.4796 76.4996 62.089 76.3923 61.6513 76.3923C61.2136 76.3923 60.8187 76.4996 60.4668 76.7142C60.1235 76.9287 59.8489 77.2249 59.6429 77.6025C59.4369 77.9802 59.3339 78.4179 59.3339 78.9157C59.3339 79.4049 59.4369 79.8384 59.6429 80.216C59.8489 80.5937 60.1235 80.8941 60.4668 81.1173C60.8187 81.3318 61.2136 81.4391 61.6513 81.4391C62.089 81.4391 62.4796 81.3318 62.8229 81.1173C63.1748 80.8941 63.4494 80.5937 63.6468 80.216C63.8528 79.8384 63.9558 79.4049 63.9558 78.9157ZM71.0024 75.504C71.5861 75.504 72.0582 75.6542 72.4186 75.9546C72.7877 76.2464 73.0323 76.6627 73.1525 77.2034H72.9594L73.0495 76.9717C73.1525 76.7313 73.3284 76.4996 73.5773 76.2764C73.8263 76.0533 74.1138 75.8687 74.4399 75.7228C74.7661 75.5769 75.1051 75.504 75.457 75.504C76.0235 75.504 76.4698 75.6284 76.796 75.8773C77.1221 76.1176 77.3539 76.4438 77.4912 76.8558C77.6371 77.2592 77.7101 77.7141 77.7101 78.2205V81.7352C77.7101 81.8811 77.6586 82.0056 77.5556 82.1086C77.4612 82.2116 77.341 82.2631 77.1951 82.2631C77.0406 82.2631 76.9161 82.2116 76.8217 82.1086C76.7273 82.0056 76.6801 81.8811 76.6801 81.7352V78.2462C76.6801 77.9115 76.6286 77.6111 76.5256 77.345C76.4312 77.0704 76.2724 76.8558 76.0493 76.7013C75.8347 76.5382 75.5386 76.4567 75.1609 76.4567C74.809 76.4567 74.4872 76.5382 74.1953 76.7013C73.9035 76.8558 73.6718 77.0704 73.5001 77.345C73.3284 77.6111 73.2426 77.9115 73.2426 78.2462V81.7352C73.2426 81.8811 73.1954 82.0056 73.101 82.1086C73.0066 82.2116 72.8821 82.2631 72.7276 82.2631C72.5817 82.2631 72.4573 82.2116 72.3543 82.1086C72.2599 82.0056 72.2126 81.8811 72.2126 81.7352V78.2076C72.2126 77.8815 72.1654 77.5896 72.071 77.3321C71.9852 77.0661 71.835 76.8558 71.6204 76.7013C71.4058 76.5382 71.1097 76.4567 70.7321 76.4567C70.3888 76.4567 70.0755 76.5382 69.7922 76.7013C69.509 76.8558 69.2815 77.0661 69.1099 77.3321C68.9382 77.5896 68.8524 77.8815 68.8524 78.2076V81.7352C68.8524 81.8811 68.8009 82.0056 68.6979 82.1086C68.6035 82.2116 68.4833 82.2631 68.3374 82.2631C68.1915 82.2631 68.067 82.2116 67.964 82.1086C67.8696 82.0056 67.8224 81.8811 67.8224 81.7352V76.1219C67.8224 75.976 67.8696 75.8559 67.964 75.7614C68.067 75.6584 68.1915 75.607 68.3374 75.607C68.4919 75.607 68.6164 75.6584 68.7108 75.7614C68.8052 75.8559 68.8524 75.976 68.8524 76.1219V77.1004L68.5691 77.4094C68.6035 77.1862 68.6893 76.9631 68.8266 76.7399C68.9726 76.5168 69.1571 76.3108 69.3802 76.1219C69.6034 75.9331 69.8523 75.7829 70.127 75.6713C70.4016 75.5597 70.6935 75.504 71.0024 75.504ZM84.1862 75.504C84.7698 75.504 85.2934 75.6499 85.7569 75.9417C86.2204 76.2335 86.5851 76.6369 86.8512 77.1519C87.1259 77.6669 87.2632 78.2591 87.2632 78.9286C87.2632 79.5895 87.1259 80.1817 86.8512 80.7053C86.5851 81.2203 86.2204 81.6279 85.7569 81.9284C85.302 82.2202 84.787 82.3661 84.2119 82.3661C83.8944 82.3661 83.594 82.3189 83.3107 82.2245C83.0361 82.1215 82.7829 81.9927 82.5511 81.8382C82.328 81.6752 82.1391 81.4949 81.9846 81.2975C81.8301 81.0915 81.7186 80.8898 81.6499 80.6924L81.9331 80.5122V84.3101C81.9331 84.4561 81.8859 84.5805 81.7915 84.6835C81.6971 84.7865 81.5726 84.838 81.4182 84.838C81.2722 84.838 81.1478 84.7865 81.0448 84.6835C80.9504 84.5891 80.9032 84.4646 80.9032 84.3101V76.0833C80.9032 75.9374 80.9504 75.8172 81.0448 75.7228C81.1478 75.6198 81.2722 75.5683 81.4182 75.5683C81.5726 75.5683 81.6971 75.6198 81.7915 75.7228C81.8859 75.8172 81.9331 75.9374 81.9331 76.0833V77.2291L81.74 77.1261C81.8001 76.9116 81.9031 76.7056 82.049 76.5082C82.2035 76.3108 82.388 76.1391 82.6026 75.9932C82.8258 75.8387 83.0704 75.7185 83.3365 75.6327C83.6111 75.5469 83.8944 75.504 84.1862 75.504ZM84.0703 76.4567C83.6412 76.4567 83.2592 76.564 82.9245 76.7785C82.5983 76.9931 82.3408 77.2849 82.152 77.654C81.9718 78.0231 81.8816 78.4479 81.8816 78.9286C81.8816 79.4007 81.9718 79.8255 82.152 80.2032C82.3408 80.5808 82.5983 80.8769 82.9245 81.0915C83.2592 81.3061 83.6412 81.4134 84.0703 81.4134C84.4995 81.4134 84.8771 81.3061 85.2033 81.0915C85.5294 80.8769 85.7869 80.5808 85.9757 80.2032C86.1646 79.8255 86.259 79.4007 86.259 78.9286C86.259 78.4479 86.1646 78.0231 85.9757 77.654C85.7869 77.2849 85.5294 76.9931 85.2033 76.7785C84.8771 76.564 84.4995 76.4567 84.0703 76.4567ZM90.6139 82.2631C90.468 82.2631 90.3435 82.2116 90.2405 82.1086C90.1461 82.0056 90.0989 81.8811 90.0989 81.7352V76.1219C90.0989 75.976 90.1461 75.8559 90.2405 75.7614C90.3435 75.6584 90.468 75.607 90.6139 75.607C90.7684 75.607 90.8928 75.6584 90.9873 75.7614C91.0817 75.8559 91.1289 75.976 91.1289 76.1219V77.8214L90.9744 77.551C91.0259 77.2849 91.116 77.0274 91.2448 76.7785C91.3821 76.521 91.5537 76.2936 91.7597 76.0962C91.9657 75.8902 92.2018 75.7314 92.4678 75.6198C92.7339 75.4997 93.0257 75.4396 93.3433 75.4396C93.5321 75.4396 93.7038 75.4868 93.8583 75.5812C94.0214 75.667 94.1029 75.7915 94.1029 75.9546C94.1029 76.1348 94.0557 76.2678 93.9613 76.3537C93.8669 76.4395 93.7596 76.4824 93.6394 76.4824C93.5278 76.4824 93.4206 76.461 93.3176 76.418C93.2146 76.3665 93.0858 76.3408 92.9313 76.3408C92.7167 76.3408 92.5022 76.4009 92.2876 76.521C92.0816 76.6326 91.8885 76.7957 91.7082 77.0103C91.5366 77.2249 91.395 77.4695 91.2834 77.7441C91.1804 78.0102 91.1289 78.2977 91.1289 78.6067V81.7352C91.1289 81.8811 91.0774 82.0056 90.9744 82.1086C90.88 82.2116 90.7598 82.2631 90.6139 82.2631ZM99.3416 82.3918C98.655 82.3918 98.0542 82.2459 97.5392 81.9541C97.0242 81.6623 96.6208 81.2632 96.329 80.7568C96.0458 80.2418 95.9041 79.6496 95.9041 78.9801C95.9041 78.2334 96.05 77.5982 96.3419 77.0746C96.6423 76.5425 97.0285 76.1391 97.5006 75.8644C97.9812 75.5812 98.4876 75.4396 99.0198 75.4396C99.4146 75.4396 99.7965 75.5125 100.166 75.6584C100.535 75.8044 100.861 76.0189 101.144 76.3022C101.427 76.5768 101.655 76.9116 101.826 77.3064C101.998 77.6926 102.088 78.1261 102.097 78.6067C102.097 78.744 102.045 78.8599 101.942 78.9543C101.839 79.0487 101.719 79.096 101.582 79.096H96.4964L96.2646 78.2076H101.221L101.015 78.3879V78.1046C100.981 77.7527 100.861 77.4523 100.655 77.2034C100.457 76.9459 100.213 76.7485 99.921 76.6112C99.6378 76.4738 99.3373 76.4052 99.0198 76.4052C98.7623 76.4052 98.5048 76.4524 98.2473 76.5468C97.9984 76.6326 97.7709 76.7785 97.565 76.9845C97.3675 77.1819 97.2045 77.4394 97.0757 77.757C96.9556 78.0746 96.8955 78.4565 96.8955 78.9028C96.8955 79.4007 96.9942 79.8384 97.1916 80.216C97.3976 80.5937 97.6808 80.8941 98.0413 81.1173C98.4018 81.3318 98.8224 81.4391 99.303 81.4391C99.6034 81.4391 99.8652 81.4005 100.088 81.3232C100.312 81.246 100.505 81.1516 100.668 81.04C100.831 80.9198 100.968 80.7997 101.08 80.6795C101.191 80.6023 101.299 80.5637 101.402 80.5637C101.53 80.5637 101.633 80.6066 101.711 80.6924C101.796 80.7782 101.839 80.8812 101.839 81.0014C101.839 81.1473 101.771 81.276 101.633 81.3876C101.393 81.6537 101.067 81.8897 100.655 82.0957C100.243 82.2931 99.8051 82.3918 99.3416 82.3918ZM106.271 82.2888C106.271 82.5377 106.198 82.7824 106.052 83.0227C105.915 83.2716 105.739 83.4733 105.525 83.6278C105.31 83.7909 105.091 83.8724 104.868 83.8724C104.791 83.8724 104.713 83.8424 104.636 83.7823C104.559 83.7308 104.52 83.6364 104.52 83.499C104.52 83.3531 104.568 83.2673 104.662 83.2416C104.756 83.2158 104.859 83.1772 104.971 83.1257C105.1 83.057 105.198 82.9712 105.267 82.8682C105.344 82.7738 105.383 82.6622 105.383 82.5335C105.383 82.4305 105.344 82.3446 105.267 82.276C105.198 82.2159 105.113 82.1858 105.01 82.1858C104.949 82.1858 104.885 82.1944 104.816 82.2116C104.756 82.2288 104.705 82.2545 104.662 82.2888C104.602 82.2459 104.55 82.1944 104.507 82.1343C104.465 82.0743 104.443 81.997 104.443 81.9026C104.452 81.7138 104.546 81.555 104.726 81.4262C104.907 81.2889 105.113 81.2203 105.344 81.2203C105.619 81.2203 105.842 81.3233 106.014 81.5292C106.185 81.7352 106.271 81.9884 106.271 82.2888ZM116.855 75.4396C117.293 75.4396 117.688 75.4868 118.04 75.5812C118.392 75.6756 118.671 75.8044 118.877 75.9674C119.083 76.1305 119.186 76.3151 119.186 76.521C119.186 76.6326 119.147 76.7399 119.07 76.8429C118.993 76.9459 118.89 76.9974 118.761 76.9974C118.641 76.9974 118.542 76.9759 118.465 76.933C118.396 76.8901 118.327 76.8343 118.259 76.7657C118.199 76.697 118.113 76.6369 118.001 76.5854C117.898 76.5253 117.748 76.4781 117.551 76.4438C117.353 76.4095 117.156 76.3923 116.958 76.3923C116.486 76.3923 116.07 76.5039 115.71 76.727C115.358 76.9502 115.079 77.2506 114.873 77.6283C114.667 78.0059 114.564 78.4351 114.564 78.9157C114.564 79.3964 114.662 79.8255 114.86 80.2032C115.057 80.5808 115.332 80.8812 115.684 81.1044C116.036 81.3275 116.443 81.4391 116.907 81.4391C117.207 81.4391 117.448 81.4134 117.628 81.3619C117.808 81.3104 117.958 81.2503 118.078 81.1816C118.233 81.0958 118.349 81.01 118.426 80.9241C118.512 80.8383 118.623 80.7954 118.761 80.7954C118.907 80.7954 119.018 80.8426 119.096 80.937C119.181 81.0314 119.224 81.1473 119.224 81.2846C119.224 81.4391 119.117 81.6022 118.902 81.7739C118.688 81.9455 118.396 82.0914 118.027 82.2116C117.666 82.3318 117.254 82.3918 116.791 82.3918C116.139 82.3918 115.568 82.2416 115.079 81.9412C114.589 81.6322 114.207 81.216 113.933 80.6924C113.667 80.1602 113.534 79.568 113.534 78.9157C113.534 78.2634 113.671 77.6755 113.946 77.1519C114.229 76.6283 114.619 76.2121 115.117 75.9031C115.615 75.5941 116.194 75.4396 116.855 75.4396ZM128.179 78.9157C128.179 79.5852 128.029 80.1817 127.729 80.7053C127.437 81.2288 127.038 81.6408 126.531 81.9412C126.033 82.2416 125.471 82.3918 124.845 82.3918C124.218 82.3918 123.652 82.2416 123.145 81.9412C122.639 81.6408 122.235 81.2288 121.935 80.7053C121.643 80.1817 121.497 79.5852 121.497 78.9157C121.497 78.2462 121.643 77.6497 121.935 77.1261C122.235 76.6026 122.639 76.1906 123.145 75.8902C123.652 75.5898 124.218 75.4396 124.845 75.4396C125.471 75.4396 126.033 75.5898 126.531 75.8902C127.038 76.1906 127.437 76.6026 127.729 77.1261C128.029 77.6497 128.179 78.2462 128.179 78.9157ZM127.149 78.9157C127.149 78.4179 127.046 77.9802 126.84 77.6025C126.643 77.2249 126.368 76.9287 126.016 76.7142C125.673 76.4996 125.282 76.3923 124.845 76.3923C124.407 76.3923 124.012 76.4996 123.66 76.7142C123.317 76.9287 123.042 77.2249 122.836 77.6025C122.63 77.9802 122.527 78.4179 122.527 78.9157C122.527 79.4049 122.63 79.8384 122.836 80.216C123.042 80.5937 123.317 80.8941 123.66 81.1173C124.012 81.3318 124.407 81.4391 124.845 81.4391C125.282 81.4391 125.673 81.3318 126.016 81.1173C126.368 80.8941 126.643 80.5937 126.84 80.216C127.046 79.8384 127.149 79.4049 127.149 78.9157ZM134.325 75.4396C134.908 75.4396 135.367 75.5597 135.702 75.8001C136.037 76.0404 136.273 76.3623 136.41 76.7657C136.556 77.1691 136.629 77.6197 136.629 78.1175V81.7352C136.629 81.8811 136.578 82.0056 136.475 82.1086C136.38 82.2116 136.26 82.2631 136.114 82.2631C135.968 82.2631 135.844 82.2116 135.741 82.1086C135.646 82.0056 135.599 81.8811 135.599 81.7352V78.1432C135.599 77.8171 135.548 77.5253 135.445 77.2678C135.35 77.0017 135.187 76.7914 134.955 76.6369C134.732 76.4738 134.423 76.3923 134.028 76.3923C133.668 76.3923 133.338 76.4738 133.037 76.6369C132.737 76.7914 132.496 77.0017 132.316 77.2678C132.136 77.5253 132.046 77.8171 132.046 78.1432V81.7352C132.046 81.8811 131.994 82.0056 131.891 82.1086C131.797 82.2116 131.677 82.2631 131.531 82.2631C131.385 82.2631 131.26 82.2116 131.157 82.1086C131.063 82.0056 131.016 81.8811 131.016 81.7352V76.1219C131.016 75.976 131.063 75.8559 131.157 75.7614C131.26 75.6584 131.385 75.607 131.531 75.607C131.685 75.607 131.81 75.6584 131.904 75.7614C131.999 75.8559 132.046 75.976 132.046 76.1219V77.036L131.788 77.3193C131.831 77.0961 131.93 76.8729 132.084 76.6498C132.239 76.418 132.432 76.2121 132.664 76.0318C132.896 75.8516 133.153 75.7099 133.436 75.607C133.719 75.4954 134.016 75.4396 134.325 75.4396ZM139.564 75.6456H142.59C142.727 75.6456 142.839 75.6928 142.925 75.7872C143.019 75.8816 143.066 75.9932 143.066 76.1219C143.066 76.2593 143.019 76.3751 142.925 76.4695C142.839 76.5554 142.727 76.5983 142.59 76.5983H139.564C139.436 76.5983 139.324 76.5511 139.23 76.4567C139.135 76.3623 139.088 76.2464 139.088 76.1091C139.088 75.9803 139.135 75.873 139.23 75.7872C139.324 75.6928 139.436 75.6456 139.564 75.6456ZM140.916 73.8946C141.062 73.8946 141.182 73.9461 141.277 74.0491C141.371 74.1435 141.418 74.2637 141.418 74.4096V80.628C141.418 80.834 141.448 80.9885 141.508 81.0915C141.568 81.1945 141.646 81.2675 141.74 81.3104C141.843 81.3447 141.942 81.3619 142.036 81.3619C142.122 81.3619 142.195 81.349 142.255 81.3232C142.324 81.2889 142.401 81.2718 142.487 81.2718C142.573 81.2718 142.65 81.3147 142.719 81.4005C142.796 81.4777 142.834 81.5807 142.834 81.7095C142.834 81.864 142.744 81.997 142.564 82.1086C142.384 82.2116 142.182 82.2631 141.959 82.2631C141.839 82.2631 141.689 82.2545 141.508 82.2373C141.337 82.2202 141.165 82.1644 140.993 82.07C140.822 81.9756 140.676 81.8211 140.556 81.6065C140.444 81.3833 140.388 81.0743 140.388 80.6795V74.4096C140.388 74.2637 140.44 74.1435 140.543 74.0491C140.646 73.9461 140.77 73.8946 140.916 73.8946ZM146.301 82.2631C146.155 82.2631 146.031 82.2116 145.928 82.1086C145.834 82.0056 145.786 81.8811 145.786 81.7352V76.1219C145.786 75.976 145.834 75.8559 145.928 75.7614C146.031 75.6584 146.155 75.607 146.301 75.607C146.456 75.607 146.58 75.6584 146.675 75.7614C146.769 75.8559 146.816 75.976 146.816 76.1219V77.8214L146.662 77.551C146.713 77.2849 146.803 77.0274 146.932 76.7785C147.07 76.521 147.241 76.2936 147.447 76.0962C147.653 75.8902 147.889 75.7314 148.155 75.6198C148.421 75.4997 148.713 75.4396 149.031 75.4396C149.22 75.4396 149.391 75.4868 149.546 75.5812C149.709 75.667 149.79 75.7915 149.79 75.9546C149.79 76.1348 149.743 76.2678 149.649 76.3537C149.554 76.4395 149.447 76.4824 149.327 76.4824C149.215 76.4824 149.108 76.461 149.005 76.418C148.902 76.3665 148.773 76.3408 148.619 76.3408C148.404 76.3408 148.19 76.4009 147.975 76.521C147.769 76.6326 147.576 76.7957 147.396 77.0103C147.224 77.2249 147.082 77.4695 146.971 77.7441C146.868 78.0102 146.816 78.2977 146.816 78.6067V81.7352C146.816 81.8811 146.765 82.0056 146.662 82.1086C146.567 82.2116 146.447 82.2631 146.301 82.2631ZM158.273 78.9157C158.273 79.5852 158.123 80.1817 157.823 80.7053C157.531 81.2288 157.132 81.6408 156.626 81.9412C156.128 82.2416 155.566 82.3918 154.939 82.3918C154.312 82.3918 153.746 82.2416 153.24 81.9412C152.733 81.6408 152.33 81.2288 152.029 80.7053C151.737 80.1817 151.592 79.5852 151.592 78.9157C151.592 78.2462 151.737 77.6497 152.029 77.1261C152.33 76.6026 152.733 76.1906 153.24 75.8902C153.746 75.5898 154.312 75.4396 154.939 75.4396C155.566 75.4396 156.128 75.5898 156.626 75.8902C157.132 76.1906 157.531 76.6026 157.823 77.1261C158.123 77.6497 158.273 78.2462 158.273 78.9157ZM157.243 78.9157C157.243 78.4179 157.141 77.9802 156.935 77.6025C156.737 77.2249 156.462 76.9287 156.111 76.7142C155.767 76.4996 155.377 76.3923 154.939 76.3923C154.501 76.3923 154.106 76.4996 153.754 76.7142C153.411 76.9287 153.137 77.2249 152.931 77.6025C152.725 77.9802 152.622 78.4179 152.622 78.9157C152.622 79.4049 152.725 79.8384 152.931 80.216C153.137 80.5937 153.411 80.8941 153.754 81.1173C154.106 81.3318 154.501 81.4391 154.939 81.4391C155.377 81.4391 155.767 81.3318 156.111 81.1173C156.462 80.8941 156.737 80.5937 156.935 80.216C157.141 79.8384 157.243 79.4049 157.243 78.9157ZM162.243 81.7352C162.243 81.8811 162.192 82.0056 162.089 82.1086C161.986 82.2116 161.861 82.2631 161.715 82.2631C161.569 82.2631 161.449 82.2116 161.355 82.1086C161.26 82.0056 161.213 81.8811 161.213 81.7352V73.2509C161.213 73.105 161.26 72.9848 161.355 72.8904C161.458 72.7874 161.582 72.7359 161.728 72.7359C161.883 72.7359 162.007 72.7874 162.101 72.8904C162.196 72.9848 162.243 73.105 162.243 73.2509V81.7352ZM168.479 82.3918C167.793 82.3918 167.192 82.2459 166.677 81.9541C166.162 81.6623 165.759 81.2632 165.467 80.7568C165.184 80.2418 165.042 79.6496 165.042 78.9801C165.042 78.2334 165.188 77.5982 165.48 77.0746C165.78 76.5425 166.166 76.1391 166.638 75.8644C167.119 75.5812 167.625 75.4396 168.158 75.4396C168.552 75.4396 168.934 75.5125 169.303 75.6584C169.673 75.8044 169.999 76.0189 170.282 76.3022C170.565 76.5768 170.793 76.9116 170.964 77.3064C171.136 77.6926 171.226 78.1261 171.235 78.6067C171.235 78.744 171.183 78.8599 171.08 78.9543C170.977 79.0487 170.857 79.096 170.72 79.096H165.634L165.402 78.2076H170.359L170.153 78.3879V78.1046C170.119 77.7527 169.999 77.4523 169.793 77.2034C169.595 76.9459 169.351 76.7485 169.059 76.6112C168.776 76.4738 168.475 76.4052 168.158 76.4052C167.9 76.4052 167.643 76.4524 167.385 76.5468C167.136 76.6326 166.909 76.7785 166.703 76.9845C166.505 77.1819 166.342 77.4394 166.214 77.757C166.093 78.0746 166.033 78.4565 166.033 78.9028C166.033 79.4007 166.132 79.8384 166.329 80.216C166.535 80.5937 166.819 80.8941 167.179 81.1173C167.54 81.3318 167.96 81.4391 168.441 81.4391C168.741 81.4391 169.003 81.4005 169.226 81.3232C169.449 81.246 169.642 81.1516 169.806 81.04C169.969 80.9198 170.106 80.7997 170.218 80.6795C170.329 80.6023 170.436 80.5637 170.539 80.5637C170.668 80.5637 170.771 80.6066 170.848 80.6924C170.934 80.7782 170.977 80.8812 170.977 81.0014C170.977 81.1473 170.908 81.276 170.771 81.3876C170.531 81.6537 170.205 81.8897 169.793 82.0957C169.381 82.2931 168.943 82.3918 168.479 82.3918Z" fill="#606060"/>
</svg>
