<svg width="90" height="28" viewBox="0 0 90 28" fill="none" xmlns="http://www.w3.org/2000/svg">
<path d="M73.222 0.0399551H87.4417C87.8944 0.0399551 88.2805 0.186413 88.6001 0.479329C88.9196 0.772243 89.0794 1.14504 89.0794 1.59773C89.0794 2.05042 88.9196 2.42322 88.6001 2.71613C88.2805 2.98242 87.8944 3.11556 87.4417 3.11556H74.5801L74.9396 2.43653V12.5421L74.5402 12.1027H85.6443C86.097 12.1027 86.4831 12.2492 86.8026 12.5421C87.1222 12.835 87.282 13.2078 87.282 13.6605C87.282 14.1132 87.1222 14.486 86.8026 14.7789C86.4831 15.0452 86.097 15.1783 85.6443 15.1783H74.66L74.9396 14.8188V25.1641L74.6999 24.8845H87.4417C87.8944 24.8845 88.2805 25.0442 88.6001 25.3638C88.9196 25.6833 89.0794 26.0428 89.0794 26.4422C89.0794 26.8949 88.9196 27.2677 88.6001 27.5606C88.2805 27.8535 87.8944 28 87.4417 28H73.222C72.7694 28 72.3833 27.8402 72.0637 27.5207C71.7708 27.2011 71.6243 26.815 71.6243 26.3623V1.63767C71.6243 1.18499 71.7708 0.812185 72.0637 0.519271C72.3833 0.199727 72.7694 0.0399551 73.222 0.0399551Z" fill="black"/>
<path d="M61.2014 0C61.6541 0 62.0402 0.146456 62.3597 0.43937C62.6793 0.705658 62.839 1.06515 62.839 1.51783C62.839 1.73086 62.7858 1.97052 62.6793 2.2368L52.2542 26.9615C52.0944 27.3076 51.868 27.5739 51.5751 27.7603C51.3088 27.9201 51.0159 28 50.6964 28C50.4035 27.9734 50.1239 27.8802 49.8576 27.7204C49.5913 27.534 49.3916 27.281 49.2584 26.9615L41.8748 15.2142C41.8216 15.1076 41.7816 15.0011 41.755 14.8946C41.7284 14.7615 41.715 14.6283 41.715 14.4952C41.715 13.9892 41.8881 13.6031 42.2343 13.3368C42.6071 13.0439 42.9666 12.8975 43.3128 12.8975C44.0317 12.8975 44.551 13.2703 44.8705 14.0159L51.4154 23.8459H50.4967L59.7235 0.998572C60.043 0.332857 60.5357 0 61.2014 0Z" fill="#E2F1BE"/>
<path d="M29.8946 26.3623C29.8946 26.815 29.7215 27.2011 29.3753 27.5207C29.0558 27.8402 28.6696 28 28.217 28C27.711 28 27.3116 27.8402 27.0187 27.5207C26.7258 27.2011 26.5793 26.815 26.5793 26.3623V14.3841C26.5793 13.9047 26.7391 13.5186 27.0586 13.2257C27.3782 12.9062 27.7776 12.7464 28.2569 12.7464C28.7096 12.7464 29.0957 12.9062 29.4152 13.2257C29.7348 13.5186 29.8946 13.9047 29.8946 14.3841V26.3623Z" fill="black"/>
<path d="M1.63766 28C1.15834 28 0.758915 27.8402 0.439372 27.5207C0.146457 27.2011 0 26.815 0 26.3623V1.63767C0 1.18499 0.146457 0.812185 0.439372 0.519271C0.758915 0.199727 1.14503 0.0399551 1.59772 0.0399551H15.6177C16.0704 0.0399551 16.4565 0.186413 16.776 0.479329C17.0956 0.772243 17.2553 1.14504 17.2553 1.59773C17.2553 2.02379 17.0956 2.38327 16.776 2.67619C16.4565 2.9691 16.0704 3.11556 15.6177 3.11556H3.03566L3.27532 2.79602V12.582L3.0756 12.1427H13.8203C14.2729 12.1427 14.6591 12.3024 14.9786 12.622C15.2981 12.9149 15.4579 13.2877 15.4579 13.7404C15.4579 14.1398 15.2981 14.4993 14.9786 14.8188C14.6591 15.1118 14.2729 15.2582 13.8203 15.2582H2.99572L3.27532 14.8987V26.3623C3.27532 26.815 3.11555 27.2011 2.796 27.5207C2.47646 27.8402 2.09035 28 1.63766 28Z" fill="black"/>
</svg>
