<svg width="165" height="159" viewBox="0 0 165 159" fill="none" xmlns="http://www.w3.org/2000/svg">
<path d="M92.4275 57.9073C91.6615 57.9073 90.9268 57.603 90.3851 57.0614C89.8435 56.5197 89.5392 55.785 89.5392 55.019V26.1354C89.5392 20.7731 87.409 15.6304 83.6173 11.8387C79.8256 8.04702 74.6829 5.91686 69.3206 5.91686C63.9583 5.91686 58.8157 8.04702 55.024 11.8387C51.2323 15.6304 49.1021 20.7731 49.1021 26.1354V55.019C49.1021 55.785 48.7978 56.5197 48.2561 57.0614C47.7144 57.603 46.9798 57.9073 46.2137 57.9073C45.4477 57.9073 44.713 57.603 44.1714 57.0614C43.6297 56.5197 43.3254 55.785 43.3254 55.019V26.1354C43.3254 19.241 46.0642 12.629 50.9392 7.75397C55.8143 2.87891 62.4263 0.140137 69.3206 0.140137C76.215 0.140137 82.827 2.87891 87.702 7.75397C92.5771 12.629 95.3159 19.241 95.3159 26.1354V55.019C95.3159 55.785 95.0116 56.5197 94.4699 57.0614C93.9282 57.603 93.1936 57.9073 92.4275 57.9073Z" fill="#A6A7AA"/>
<path d="M98.2043 159H0L5.77672 43.4657H92.4276L98.2043 159Z" fill="#EB63F4"/>
<path d="M121.311 159H98.2043L92.4276 43.4657H115.534L121.311 159Z" fill="#D535DF"/>
<path d="M109.927 144.555C109.87 144.558 109.812 144.558 109.754 144.558C109.018 144.558 108.31 144.276 107.774 143.771C107.239 143.265 106.916 142.575 106.873 141.84L101.096 43.6354C101.093 43.5776 101.093 43.5235 101.093 43.4657H106.877L112.643 141.5C112.687 142.265 112.426 143.017 111.917 143.589C111.408 144.162 110.692 144.509 109.927 144.555Z" fill="#79157F"/>
<path d="M25.9952 55.0189H31.7719V72.3491H25.9952V55.0189Z" fill="#DADCDE"/>
<path d="M28.8836 57.9073C28.1175 57.9073 27.3829 57.603 26.8412 57.0614C26.2995 56.5197 25.9952 55.785 25.9952 55.019V26.1354C25.9952 19.241 28.734 12.629 33.6091 7.75397C38.4841 2.87891 45.0961 0.140137 51.9905 0.140137C58.8848 0.140137 65.4968 2.87891 70.3719 7.75397C75.2469 12.629 77.9857 19.241 77.9857 26.1354V55.019C77.9857 55.785 77.6814 56.5197 77.1397 57.0614C76.5981 57.603 75.8634 57.9073 75.0974 57.9073C74.3313 57.9073 73.5966 57.603 73.055 57.0614C72.5133 56.5197 72.209 55.785 72.209 55.019V26.1354C72.209 20.7731 70.0788 15.6304 66.2871 11.8387C62.4954 8.04702 57.3528 5.91686 51.9905 5.91686C46.6282 5.91686 41.4855 8.04702 37.6938 11.8387C33.9021 15.6304 31.7719 20.7731 31.7719 26.1354V55.019C31.7719 55.785 31.4676 56.5197 30.926 57.0614C30.3843 57.603 29.6496 57.9073 28.8836 57.9073Z" fill="#CCCDCF"/>
<path d="M37.5487 95.4561H20.2186V72.3492L28.8836 66.5725L37.5487 72.3492V95.4561Z" fill="#195773"/>
<g filter="url(#filter0_d_25_234)">
<rect x="45.4917" y="72.7102" width="84.1235" height="16.9691" rx="8.48456" fill="white"/>
</g>
<circle cx="53.6152" cy="81.1946" r="4.01306" fill="white" stroke="#999999"/>
<path fill-rule="evenodd" clip-rule="evenodd" d="M117.971 79.5701V79.0285H119.596V79.5701H117.971ZM117.43 79.5701V78.848C117.43 78.7522 117.468 78.6604 117.536 78.5927C117.603 78.525 117.695 78.4869 117.791 78.4869H119.777C119.872 78.4869 119.964 78.525 120.032 78.5927C120.1 78.6604 120.138 78.7522 120.138 78.848V79.5701H121.04C121.112 79.5701 121.181 79.5986 121.232 79.6494C121.283 79.7002 121.311 79.769 121.311 79.8409C121.311 79.9127 121.283 79.9815 121.232 80.0323C121.181 80.0831 121.112 80.1116 121.04 80.1116H120.909L120.64 83.5968C120.626 83.7782 120.544 83.9477 120.411 84.0713C120.278 84.195 120.102 84.2636 119.92 84.2637H117.647C117.465 84.2636 117.29 84.195 117.157 84.0713C117.023 83.9477 116.941 83.7782 116.927 83.5968L116.659 80.1116H116.527C116.455 80.1116 116.387 80.0831 116.336 80.0323C116.285 79.9815 116.256 79.9127 116.256 79.8409C116.256 79.769 116.285 79.7002 116.336 79.6494C116.387 79.5986 116.455 79.5701 116.527 79.5701H117.43ZM117.202 80.1116H120.365L120.1 83.5553C120.097 83.6006 120.076 83.643 120.043 83.6739C120.01 83.7048 119.966 83.722 119.92 83.7221H117.647C117.602 83.722 117.558 83.7048 117.525 83.6739C117.491 83.643 117.471 83.6006 117.467 83.5553L117.202 80.1116Z" fill="#A8A8A8"/>
<g filter="url(#filter1_d_25_234)">
<rect x="67.8765" y="101.233" width="84.1235" height="16.9691" rx="8.48456" fill="white"/>
</g>
<circle cx="76" cy="109.717" r="4.01306" fill="white" stroke="#999999"/>
<path fill-rule="evenodd" clip-rule="evenodd" d="M140.356 108.093V107.551H141.981V108.093H140.356ZM139.815 108.093V107.371C139.815 107.275 139.853 107.183 139.92 107.115C139.988 107.048 140.08 107.01 140.176 107.01H142.161C142.257 107.01 142.349 107.048 142.417 107.115C142.484 107.183 142.523 107.275 142.523 107.371V108.093H143.425C143.497 108.093 143.566 108.121 143.617 108.172C143.667 108.223 143.696 108.292 143.696 108.363C143.696 108.435 143.667 108.504 143.617 108.555C143.566 108.606 143.497 108.634 143.425 108.634H143.293L143.025 112.119C143.011 112.301 142.929 112.47 142.796 112.594C142.662 112.718 142.487 112.786 142.305 112.786H140.032C139.85 112.786 139.675 112.718 139.541 112.594C139.408 112.47 139.326 112.301 139.312 112.119L139.044 108.634H138.912C138.84 108.634 138.771 108.606 138.721 108.555C138.67 108.504 138.641 108.435 138.641 108.363C138.641 108.292 138.67 108.223 138.721 108.172C138.771 108.121 138.84 108.093 138.912 108.093H139.815ZM139.587 108.634H142.75L142.485 112.078C142.482 112.123 142.461 112.166 142.428 112.196C142.394 112.227 142.351 112.245 142.305 112.245H140.032C139.987 112.245 139.943 112.227 139.909 112.196C139.876 112.166 139.856 112.123 139.852 112.078L139.587 108.634Z" fill="#A8A8A8"/>
<circle cx="76" cy="109.717" r="4.01306" fill="#A4D58B" stroke="#61B737"/>
<path d="M77.1192 111.197C77.2341 111.197 77.3443 111.243 77.4256 111.324C77.5068 111.406 77.5525 111.516 77.5525 111.631C77.5525 111.746 77.5068 111.856 77.4256 111.937C77.3443 112.018 77.2341 112.064 77.1192 112.064C77.0043 112.064 76.8941 112.018 76.8129 111.937C76.7316 111.856 76.686 111.746 76.686 111.631C76.686 111.39 76.8788 111.197 77.1192 111.197ZM73.6532 107.731H74.3616L74.5652 108.165H77.7691C77.8266 108.165 77.8817 108.188 77.9223 108.228C77.9629 108.269 77.9857 108.324 77.9857 108.381C77.9857 108.418 77.9749 108.455 77.9597 108.49L77.1842 109.891C77.1106 110.023 76.9676 110.114 76.8051 110.114H75.1913L74.9963 110.467L74.9898 110.493C74.9898 110.508 74.9955 110.522 75.0056 110.532C75.0158 110.542 75.0296 110.548 75.0439 110.548H77.5525V110.981H74.953C74.8381 110.981 74.7279 110.935 74.6466 110.854C74.5654 110.773 74.5197 110.663 74.5197 110.548C74.5197 110.472 74.5392 110.4 74.5717 110.34L74.8663 109.809L74.0865 108.165H73.6532V107.731ZM74.953 111.197C75.0679 111.197 75.1781 111.243 75.2593 111.324C75.3406 111.406 75.3862 111.516 75.3862 111.631C75.3862 111.746 75.3406 111.856 75.2593 111.937C75.1781 112.018 75.0679 112.064 74.953 112.064C74.8381 112.064 74.7279 112.018 74.6466 111.937C74.5654 111.856 74.5197 111.746 74.5197 111.631C74.5197 111.39 74.7125 111.197 74.953 111.197ZM76.9026 109.681L77.5048 108.598H74.7667L75.2779 109.681H76.9026Z" fill="#61B737"/>
<g filter="url(#filter2_d_25_234)">
<rect x="23.1069" y="129.755" width="84.1235" height="16.9691" rx="8.48456" fill="white"/>
</g>
<circle cx="31.2304" cy="138.24" r="4.01306" fill="white" stroke="#999999"/>
<path fill-rule="evenodd" clip-rule="evenodd" d="M95.5867 136.615V136.074H97.2114V136.615H95.5867ZM95.0451 136.615V135.893C95.0451 135.797 95.0831 135.705 95.1509 135.638C95.2186 135.57 95.3104 135.532 95.4062 135.532H97.3919C97.4877 135.532 97.5795 135.57 97.6472 135.638C97.7149 135.705 97.7529 135.797 97.7529 135.893V136.615H98.6556C98.7274 136.615 98.7963 136.644 98.847 136.694C98.8978 136.745 98.9263 136.814 98.9263 136.886C98.9263 136.958 98.8978 137.027 98.847 137.077C98.7963 137.128 98.7274 137.157 98.6556 137.157H98.5238L98.2555 140.642C98.2416 140.823 98.1597 140.993 98.0262 141.116C97.8928 141.24 97.7175 141.309 97.5356 141.309H95.2625C95.0805 141.309 94.9053 141.24 94.7718 141.116C94.6383 140.993 94.5565 140.823 94.5425 140.642L94.2743 137.157H94.1425C94.0707 137.157 94.0018 137.128 93.951 137.077C93.9002 137.027 93.8717 136.958 93.8717 136.886C93.8717 136.814 93.9002 136.745 93.951 136.694C94.0018 136.644 94.0707 136.615 94.1425 136.615H95.0451ZM94.8176 137.157H97.9804L97.7154 140.6C97.7119 140.646 97.6915 140.688 97.6582 140.719C97.6248 140.75 97.5811 140.767 97.5356 140.767H95.2625C95.217 140.767 95.1732 140.75 95.1399 140.719C95.1065 140.688 95.0861 140.646 95.0827 140.6L94.8176 137.157Z" fill="#A8A8A8"/>
<defs>
<filter id="filter0_d_25_234" x="32.4917" y="56.7102" width="110.124" height="42.9691" filterUnits="userSpaceOnUse" color-interpolation-filters="sRGB">
<feFlood flood-opacity="0" result="BackgroundImageFix"/>
<feColorMatrix in="SourceAlpha" type="matrix" values="0 0 0 0 0 0 0 0 0 0 0 0 0 0 0 0 0 0 127 0" result="hardAlpha"/>
<feOffset dy="-3"/>
<feGaussianBlur stdDeviation="6.5"/>
<feComposite in2="hardAlpha" operator="out"/>
<feColorMatrix type="matrix" values="0 0 0 0 0 0 0 0 0 0 0 0 0 0 0 0 0 0 0.13 0"/>
<feBlend mode="normal" in2="BackgroundImageFix" result="effect1_dropShadow_25_234"/>
<feBlend mode="normal" in="SourceGraphic" in2="effect1_dropShadow_25_234" result="shape"/>
</filter>
<filter id="filter1_d_25_234" x="54.8765" y="85.2327" width="110.124" height="42.9691" filterUnits="userSpaceOnUse" color-interpolation-filters="sRGB">
<feFlood flood-opacity="0" result="BackgroundImageFix"/>
<feColorMatrix in="SourceAlpha" type="matrix" values="0 0 0 0 0 0 0 0 0 0 0 0 0 0 0 0 0 0 127 0" result="hardAlpha"/>
<feOffset dy="-3"/>
<feGaussianBlur stdDeviation="6.5"/>
<feComposite in2="hardAlpha" operator="out"/>
<feColorMatrix type="matrix" values="0 0 0 0 0 0 0 0 0 0 0 0 0 0 0 0 0 0 0.13 0"/>
<feBlend mode="normal" in2="BackgroundImageFix" result="effect1_dropShadow_25_234"/>
<feBlend mode="normal" in="SourceGraphic" in2="effect1_dropShadow_25_234" result="shape"/>
</filter>
<filter id="filter2_d_25_234" x="10.1069" y="113.755" width="110.124" height="42.9691" filterUnits="userSpaceOnUse" color-interpolation-filters="sRGB">
<feFlood flood-opacity="0" result="BackgroundImageFix"/>
<feColorMatrix in="SourceAlpha" type="matrix" values="0 0 0 0 0 0 0 0 0 0 0 0 0 0 0 0 0 0 127 0" result="hardAlpha"/>
<feOffset dy="-3"/>
<feGaussianBlur stdDeviation="6.5"/>
<feComposite in2="hardAlpha" operator="out"/>
<feColorMatrix type="matrix" values="0 0 0 0 0 0 0 0 0 0 0 0 0 0 0 0 0 0 0.13 0"/>
<feBlend mode="normal" in2="BackgroundImageFix" result="effect1_dropShadow_25_234"/>
<feBlend mode="normal" in="SourceGraphic" in2="effect1_dropShadow_25_234" result="shape"/>
</filter>
</defs>
</svg>
